<mxfile host="app.diagrams.net" modified="2023-04-04T07:16:55.208Z" agent="Mozilla/5.0 (Windows NT 10.0; Win64; x64) AppleWebKit/537.36 (KHTML, like Gecko) Chrome/111.0.0.0 Safari/537.36" etag="TWNeH0m2VMqs9D23DER0" version="21.1.1" type="github">
  <diagram name="Page-1" id="bby5jGUO3y1kfN3Rxt7U">
    <mxGraphModel dx="1050" dy="545" grid="1" gridSize="10" guides="1" tooltips="1" connect="1" arrows="1" fold="1" page="1" pageScale="1" pageWidth="850" pageHeight="1100" math="0" shadow="0">
      <root>
        <mxCell id="0" />
        <mxCell id="1" parent="0" />
        <mxCell id="UlUxg2V4AjxNH1vusrBn-2" value="" style="shape=image;html=1;verticalAlign=top;verticalLabelPosition=bottom;labelBackgroundColor=#ffffff;imageAspect=0;aspect=fixed;image=https://cdn3.iconfinder.com/data/icons/strokeline/128/revisi_02-128.png" vertex="1" parent="1">
          <mxGeometry x="20" y="239" width="81" height="81" as="geometry" />
        </mxCell>
        <mxCell id="UlUxg2V4AjxNH1vusrBn-3" value="" style="outlineConnect=0;dashed=0;verticalLabelPosition=bottom;verticalAlign=top;align=center;html=1;shape=mxgraph.aws3.lambda_function;fillColor=#F58534;gradientColor=none;" vertex="1" parent="1">
          <mxGeometry x="210" y="246" width="69" height="72" as="geometry" />
        </mxCell>
        <mxCell id="UlUxg2V4AjxNH1vusrBn-5" value="" style="sketch=0;points=[[0,0,0],[0.25,0,0],[0.5,0,0],[0.75,0,0],[1,0,0],[0,1,0],[0.25,1,0],[0.5,1,0],[0.75,1,0],[1,1,0],[0,0.25,0],[0,0.5,0],[0,0.75,0],[1,0.25,0],[1,0.5,0],[1,0.75,0]];outlineConnect=0;fontColor=#232F3E;gradientColor=#FF4F8B;gradientDirection=north;fillColor=#BC1356;strokeColor=#ffffff;dashed=0;verticalLabelPosition=bottom;verticalAlign=top;align=center;html=1;fontSize=12;fontStyle=0;aspect=fixed;shape=mxgraph.aws4.resourceIcon;resIcon=mxgraph.aws4.api_gateway;" vertex="1" parent="1">
          <mxGeometry x="386" y="240" width="78" height="78" as="geometry" />
        </mxCell>
        <mxCell id="UlUxg2V4AjxNH1vusrBn-6" value="" style="sketch=0;points=[[0,0,0],[0.25,0,0],[0.5,0,0],[0.75,0,0],[1,0,0],[0,1,0],[0.25,1,0],[0.5,1,0],[0.75,1,0],[1,1,0],[0,0.25,0],[0,0.5,0],[0,0.75,0],[1,0.25,0],[1,0.5,0],[1,0.75,0]];outlineConnect=0;fontColor=#232F3E;gradientColor=#945DF2;gradientDirection=north;fillColor=#5A30B5;strokeColor=#ffffff;dashed=0;verticalLabelPosition=bottom;verticalAlign=top;align=center;html=1;fontSize=12;fontStyle=0;aspect=fixed;shape=mxgraph.aws4.resourceIcon;resIcon=mxgraph.aws4.route_53;" vertex="1" parent="1">
          <mxGeometry x="570" y="240" width="78" height="78" as="geometry" />
        </mxCell>
        <mxCell id="UlUxg2V4AjxNH1vusrBn-8" value="" style="outlineConnect=0;dashed=0;verticalLabelPosition=bottom;verticalAlign=top;align=center;html=1;shape=mxgraph.aws3.user;fillColor=#D2D3D3;gradientColor=none;" vertex="1" parent="1">
          <mxGeometry x="750" y="239" width="50" height="74.5" as="geometry" />
        </mxCell>
        <mxCell id="UlUxg2V4AjxNH1vusrBn-9" value="Secret Manager" style="text;html=1;strokeColor=none;fillColor=none;align=center;verticalAlign=middle;whiteSpace=wrap;rounded=0;" vertex="1" parent="1">
          <mxGeometry x="10" y="319" width="100" height="30" as="geometry" />
        </mxCell>
        <mxCell id="UlUxg2V4AjxNH1vusrBn-10" value="Lambda Edge" style="text;html=1;strokeColor=none;fillColor=none;align=center;verticalAlign=middle;whiteSpace=wrap;rounded=0;" vertex="1" parent="1">
          <mxGeometry x="194.5" y="319" width="100" height="30" as="geometry" />
        </mxCell>
        <mxCell id="UlUxg2V4AjxNH1vusrBn-11" value="API Gateway" style="text;html=1;strokeColor=none;fillColor=none;align=center;verticalAlign=middle;whiteSpace=wrap;rounded=0;" vertex="1" parent="1">
          <mxGeometry x="375" y="319" width="100" height="30" as="geometry" />
        </mxCell>
        <mxCell id="UlUxg2V4AjxNH1vusrBn-12" value="Route 53" style="text;html=1;strokeColor=none;fillColor=none;align=center;verticalAlign=middle;whiteSpace=wrap;rounded=0;" vertex="1" parent="1">
          <mxGeometry x="559" y="318" width="100" height="30" as="geometry" />
        </mxCell>
        <mxCell id="UlUxg2V4AjxNH1vusrBn-13" value="Users" style="text;html=1;strokeColor=none;fillColor=none;align=center;verticalAlign=middle;whiteSpace=wrap;rounded=0;" vertex="1" parent="1">
          <mxGeometry x="725" y="319" width="100" height="30" as="geometry" />
        </mxCell>
        <mxCell id="UlUxg2V4AjxNH1vusrBn-17" value="" style="endArrow=classic;startArrow=classic;html=1;rounded=0;" edge="1" parent="1">
          <mxGeometry width="50" height="50" relative="1" as="geometry">
            <mxPoint x="110" y="280" as="sourcePoint" />
            <mxPoint x="200" y="280" as="targetPoint" />
          </mxGeometry>
        </mxCell>
        <mxCell id="UlUxg2V4AjxNH1vusrBn-19" value="" style="endArrow=classic;startArrow=classic;html=1;rounded=0;" edge="1" parent="1">
          <mxGeometry width="50" height="50" relative="1" as="geometry">
            <mxPoint x="285" y="279" as="sourcePoint" />
            <mxPoint x="380" y="279" as="targetPoint" />
          </mxGeometry>
        </mxCell>
        <mxCell id="UlUxg2V4AjxNH1vusrBn-20" value="" style="endArrow=classic;startArrow=classic;html=1;rounded=0;" edge="1" parent="1">
          <mxGeometry width="50" height="50" relative="1" as="geometry">
            <mxPoint x="469" y="281.5" as="sourcePoint" />
            <mxPoint x="559" y="281.5" as="targetPoint" />
          </mxGeometry>
        </mxCell>
        <mxCell id="UlUxg2V4AjxNH1vusrBn-21" value="" style="endArrow=classic;startArrow=classic;html=1;rounded=0;" edge="1" parent="1">
          <mxGeometry width="50" height="50" relative="1" as="geometry">
            <mxPoint x="659" y="281.5" as="sourcePoint" />
            <mxPoint x="749" y="281.5" as="targetPoint" />
          </mxGeometry>
        </mxCell>
      </root>
    </mxGraphModel>
  </diagram>
</mxfile>
